PathFileType	4	(X/Y/Z)	./resultDataOpenSim/trcMotMarkerGrf/sub06/qtm-02-01.trc
DataRate	CameraRate	NumFrames	NumMarkers	Units	OrigDataRate	OrigDataStartFrame	OrigNumFrames
250.000000	250.000000	14	24	m	250.000000	191	509
Frame#	Time	L.Toe.Tip			R.Toe.Tip			L.Ankle.Lat			R.Ankle.Lat			L.Ankle.Med			R.Ankle.Med			L.Heel			R.Heel			L.Knee.Lat			R.Knee.Lat			L.Knee.Med			R.Knee.Med			L.Thigh.Upper			R.Thigh.Upper			L.ASIS			R.ASIS			V.Sacral			L.Acromium			R.Acromium			C7			L.Elbow			R.Elbow			L.Wrist.Lat			R.Wrist.Lat
		X1	Y1	Z1	X2	Y2	Z2	X3	Y3	Z3	X4	Y4	Z4	X5	Y5	Z5	X6	Y6	Z6	X7	Y7	Z7	X8	Y8	Z8	X9	Y9	Z9	X10	Y10	Z10	X11	Y11	Z11	X12	Y12	Z12	X13	Y13	Z13	X14	Y14	Z14	X15	Y15	Z15	X16	Y16	Z16	X17	Y17	Z17	X18	Y18	Z18	X19	Y19	Z19	X20	Y20	Z20	X21	Y21	Z21	X22	Y22	Z22	X23	Y23	Z23	X24	Y24	Z24

191	0.76	0.10505432	0.0096391807	-0.048809056	-0.40499483	0.09170581	0.12200275	-0.016056617	0.041081544	-0.075601915	-0.42135352	0.23002292	0.14287767	-0.019954179	0.055924761	0.011940025	-0.3834847	0.21759261	0.06207463	-0.094585316	0.01656766	-0.03349307	-0.45122594	0.27093846	0.078467066	0.080289158	0.40209841	-0.099942697	-0.073833302	0.36476358	0.18491788	0.052278974	0.40240572	0.019339908	-0.078289603	0.34904773	0.051743304	-0.07005527	0.77153987	-0.17050972	-0.14387556	0.72366849	0.16473753	-0.011941695	0.81016873	-0.11337253	-0.040451606	0.7891448	0.133195	-0.2170723	0.87182474	0.00081767102	-0.10326554	1.2743982	-0.18566699	-0.1060605	1.2759551	0.17805701	-0.18268295	1.3122455	-0.006650851	-0.19641109	0.97312582	-0.22430399	-0.14689816	0.9576536	0.25701745	-0.097741626	0.75670652	-0.28436707	0.063075737	0.82286587	0.25854151
192	0.764	0.1050202	0.0096593216	-0.048829294	-0.38740582	0.092184747	0.1221941	-0.016063984	0.041124581	-0.075514492	-0.40611311	0.2300456	0.14292219	-0.020006327	0.056005669	0.011986437	-0.36826159	0.21823333	0.061923044	-0.09457193	0.016663918	-0.033337215	-0.43692404	0.27056361	0.078544759	0.081783383	0.40204031	-0.099732306	-0.060209965	0.36774365	0.18489795	0.053758174	0.40249342	0.01950676	-0.06454818	0.35174309	0.051667463	-0.065152818	0.77279311	-0.17101767	-0.13652122	0.72593415	0.1639572	-0.0063723755	0.8114027	-0.11407073	-0.034261811	0.79105418	0.13285708	-0.21152753	0.87391057	0.00095103948	-0.096610431	1.2765015	-0.18564156	-0.10016862	1.2777916	0.17816719	-0.17619171	1.3141655	-0.0067511597	-0.18811532	0.97432774	-0.22504441	-0.14246618	0.95957258	0.25625116	-0.085882522	0.75907312	-0.28357603	0.064941947	0.82163567	0.25887975
193	0.768	0.10499758	0.0096583499	-0.048807017	-0.3695593	0.092536994	0.12237388	-0.016071882	0.041178947	-0.075431444	-0.39083585	0.22981921	0.14296042	-0.020046667	0.056089951	0.012039111	-0.35295598	0.21867842	0.061807729	-0.094536352	0.01675692	-0.03313394	-0.42262012	0.26987481	0.078635216	0.083161077	0.40202502	-0.099492455	-0.046649775	0.37088078	0.18481878	0.055132155	0.40254701	0.019704334	-0.050700892	0.35454355	0.051353568	-0.059985874	0.77417194	-0.17144742	-0.12847227	0.72828389	0.16270006	-0.000963258	0.81273528	-0.11472533	-0.028017028	0.79298054	0.1324576	-0.20621571	0.87593229	0.0015445422	-0.089991518	1.2786734	-0.1856053	-0.094229481	1.2796463	0.1782472	-0.16971729	1.3161067	-0.0068397641	-0.17991787	0.97560868	-0.22568646	-0.13810166	0.96155517	0.25550115	-0.074043794	0.76154991	-0.28278484	0.066735343	0.82049014	0.25922206
194	0.772	0.10497569	0.0096263815	-0.048740495	-0.35141073	0.092787459	0.12258524	-0.016082174	0.041245835	-0.075357284	-0.37550426	0.22937148	0.14294906	-0.020082253	0.056175602	0.012097968	-0.3374409	0.21890008	0.061696276	-0.094490582	0.016842785	-0.03290952	-0.40827573	0.26886718	0.078727244	0.084439729	0.40203846	-0.099228069	-0.033152312	0.37416512	0.18468286	0.056360493	0.40255871	0.01992147	-0.036639121	0.35742952	0.050737035	-0.054695621	0.77561453	-0.17178372	-0.12025738	0.73052599	0.16165925	0.004375304	0.81417191	-0.11530356	-0.021724121	0.79493013	0.13200166	-0.20092101	0.87789421	0.0024953746	-0.083388925	1.2809003	-0.18557151	-0.088237165	1.2815155	0.17828951	-0.16325225	1.3180697	-0.00691204	-0.17173946	0.97694783	-0.22637251	-0.13384031	0.96359655	0.25477153	-0.062265193	0.76413132	-0.282002	0.068453372	0.81943167	0.25957025
195	0.776	0.10494692	0.0095764925	-0.048657121	-0.3329571	0.092912813	0.1228254	-0.016094949	0.041325719	-0.075294695	-0.36008976	0.22871417	0.14288707	-0.020124471	0.056251557	0.012168763	-0.32173907	0.21889573	0.061585843	-0.094468394	0.01692449	-0.032738207	-0.39386232	0.26753533	0.078807589	0.085635656	0.40207095	-0.098938362	-0.019725262	0.37758994	0.18449094	0.05737998	0.40251727	0.020144327	-0.022441613	0.36038963	0.049968793	-0.049502756	0.77706168	-0.17204594	-0.1124597	0.73247153	0.16145858	0.0098232012	0.81573823	-0.11578291	-0.015410548	0.79691362	0.13148896	-0.19543135	0.87982295	0.0035635589	-0.076818935	1.2831648	-0.18552223	-0.082190178	1.2833926	0.17829503	-0.15679505	1.3200513	-0.0069640202	-0.1635266	0.97831682	-0.22715323	-0.12965082	0.96569725	0.2540645	-0.050505682	0.76682738	-0.28119568	0.070103562	0.81846669	0.25993041
196	0.78	0.10491134	0.0095406507	-0.048605563	-0.31425396	0.09287234	0.12305728	-0.016110159	0.041418544	-0.075249177	-0.34458142	0.22782448	0.1428078	-0.020178086	0.056304071	0.012262878	-0.30597595	0.2186753	0.061510353	-0.094507963	0.017010959	-0.032703928	-0.37938406	0.2658768	0.078871601	0.086753051	0.40211615	-0.098624749	-0.0063847668	0.38115245	0.18424218	0.058106516	0.40240761	0.020351518	-0.0083225445	0.36345287	0.049252995	-0.04447778	0.77849829	-0.17224943	-0.10524127	0.73419511	0.16204269	0.015464	0.81745151	-0.11619318	-0.0091081353	0.79893604	0.13091973	-0.18965459	0.88174006	0.0045764195	-0.070307354	1.2854541	-0.18543478	-0.07608734	1.2852673	0.17827304	-0.15034682	1.3220439	-0.0069955186	-0.15527458	0.9797077	-0.22797842	-0.12548861	0.96786147	0.25336903	-0.03870234	0.76964967	-0.28032887	0.071696616	0.81759931	0.26031878
197	0.784	0.10487734	0.0095485593	-0.048624368	-0.29535964	0.092660378	0.12326384	-0.016134331	0.041523195	-0.075230461	-0.3290023	0.22665544	0.14274202	-0.020231783	0.056336264	0.012379419	-0.29020728	0.21825571	0.06149799	-0.094605779	0.017105276	-0.032791527	-0.36489483	0.26389804	0.078936228	0.087779637	0.40216997	-0.098301098	0.0068509197	0.38484895	0.18393693	0.058507385	0.4022371	0.020529751	0.0055945935	0.36670256	0.04864343	-0.039473101	0.77995043	-0.17237271	-0.098424863	0.73603475	0.16291917	0.021209481	0.81928892	-0.11660877	-0.0028135646	0.80099459	0.13030646	-0.18360008	0.88365475	0.005469898	-0.063835833	1.2877665	-0.18531556	-0.069931459	1.2871302	0.17823318	-0.14390368	1.3240376	-0.0070105417	-0.14700545	0.98113888	-0.22879647	-0.12132248	0.9700887	0.25266596	-0.026814213	0.77260449	-0.27936975	0.07323856	0.81682798	0.26075015
198	0.788	0.10485486	0.0096027133	-0.048707942	-0.27628625	0.09230839	0.12346291	-0.016180854	0.041631969	-0.075242592	-0.31338285	0.22518041	0.14269826	-0.020256169	0.056381856	0.012483887	-0.27442915	0.21766513	0.061461784	-0.094702138	0.017203079	-0.032860451	-0.35046875	0.26162748	0.079042476	0.088704399	0.40222968	-0.097984498	0.019968942	0.38867113	0.18357819	0.058657075	0.40205593	0.020685354	0.019308681	0.3701995	0.048083724	-0.034328842	0.78144042	-0.17238588	-0.09177418	0.73823517	0.16373753	0.026914673	0.82119715	-0.11707763	0.0035219402	0.80308292	0.12967757	-0.17731495	0.88556916	0.0062358778	-0.057356719	1.2901035	-0.18518748	-0.063735386	1.2889752	0.17818085	-0.13745855	1.3260228	-0.0070153857	-0.13873878	0.98262649	-0.22959539	-0.1171475	0.97236729	0.25194666	-0.014812082	0.77569858	-0.27828562	0.074728106	0.81614988	0.26121808
199	0.792	0.10484348	0.0096737568	-0.048809303	-0.25701342	0.091850359	0.12367691	-0.016258912	0.041730697	-0.075274939	-0.29772523	0.22342685	0.1426601	-0.020226021	0.056478048	0.012537156	-0.2586698	0.21694163	0.061199618	-0.094752058	0.017304753	-0.032814315	-0.33614262	0.25910838	0.079230074	0.089548832	0.40229363	-0.097670392	0.032960373	0.39260612	0.1831666	0.058664314	0.40191224	0.020814141	0.032818125	0.37391153	0.047513642	-0.02898415	0.78296419	-0.17233592	-0.08505778	0.74074162	0.1644034	0.032515705	0.82312805	-0.1175626	0.0099445244	0.80519534	0.12905845	-0.17084581	0.88748367	0.0068763302	-0.050865073	1.2924579	-0.18505975	-0.057515652	1.2907995	0.1781182	-0.13101079	1.3279925	-0.0070164569	-0.13047521	0.98416569	-0.23038515	-0.11298921	0.9746771	0.25121864	-0.002718555	0.77892561	-0.27708403	0.076161249	0.81556245	0.26169998
200	0.796	0.10483431	0.0097285487	-0.04888403	-0.23751377	0.091305744	0.12392061	-0.016351812	0.041818505	-0.075303651	-0.28199186	0.22145553	0.14260622	-0.020151803	0.056620326	0.012548121	-0.24293832	0.21609421	0.060615123	-0.09478109	0.017416541	-0.032717837	-0.32187518	0.25634102	0.079496181	0.090358051	0.40235885	-0.097335371	0.045811649	0.39664094	0.18269771	0.05862279	0.40181474	0.020898496	0.046109215	0.37778188	0.046920395	-0.023385523	0.78450649	-0.17236314	-0.078100291	0.74336206	0.16492696	0.038043777	0.82505168	-0.1179747	0.016449317	0.8073327	0.12845458	-0.16422936	0.8893993	0.007385609	-0.044401767	1.2948148	-0.18493164	-0.05128101	1.292603	0.17804801	-0.12456945	1.3299411	-0.0070187246	-0.12220818	0.9857404	-0.23117801	-0.1088806	0.9769993	0.25048989	0.0093324988	0.7822394	-0.27585665	0.077538376	0.81506097	0.26218271
201	0.8	0.1048246	0.0097580279	-0.048921509	-0.21777093	0.090686218	0.12420458	-0.016416068	0.041915483	-0.075300761	-0.26611142	0.21932571	0.14254274	-0.020079029	0.056770793	0.012553361	-0.2271638	0.21504938	0.059890509	-0.094828219	0.01754435	-0.032668166	-0.30751846	0.25323127	0.079760935	0.091151803	0.40241665	-0.096969463	0.058507228	0.40076474	0.18216816	0.058669319	0.40179543	0.020960638	0.059070305	0.38179134	0.04635574	-0.017532283	0.78603914	-0.1725378	-0.070893841	0.74597424	0.16537518	0.04357036	0.82695093	-0.11827387	0.022998127	0.80950502	0.12786296	-0.15749643	0.89131823	0.007749868	-0.037982512	1.2971584	-0.18480742	-0.045030939	1.2943836	0.17797411	-0.11814481	1.331863	-0.0070220089	-0.11394014	0.98733395	-0.23197949	-0.10483447	0.97931982	0.24976007	0.021198825	0.78558162	-0.2747026	0.078871448	0.81463783	0.26266913
202	0.804	0.10481879	0.0097710069	-0.048933919	-0.19781704	0.090002752	0.12452263	-0.016452212	0.042029189	-0.075280555	-0.25002023	0.21707129	0.14249571	-0.02004214	0.056905524	0.012568831	-0.21124923	0.21368346	0.059325477	-0.09487738	0.017692086	-0.032653582	-0.29285516	0.24963178	0.079869468	0.091912294	0.40245407	-0.09658504	0.071043239	0.40496125	0.18158284	0.058886681	0.40194127	0.021069538	0.071438845	0.38592479	0.045890692	-0.011603962	0.78751833	-0.17276971	-0.063561517	0.74856126	0.16584896	0.049179587	0.82882017	-0.11849755	0.029566675	0.81172221	0.12728587	-0.15067806	0.89324435	0.0079506572	-0.03157673	1.2994774	-0.18468745	-0.038761658	1.2961344	0.17790111	-0.11173766	1.3337523	-0.0070210436	-0.10568196	0.98893443	-0.23278237	-0.10083722	0.98162659	0.24902871	0.032909919	0.78894837	-0.27360525	0.080189923	0.81428265	0.26316532
203	0.808	0.10481586	0.0097739072	-0.048935077	-0.17772231	0.089263651	0.12485883	-0.016531512	0.042142243	-0.075312573	-0.23372475	0.21467337	0.14247397	-0.020012256	0.057028015	0.012608323	-0.19515678	0.21193606	0.059057409	-0.09489118	0.017856356	-0.032606416	-0.27776135	0.24547873	0.079709881	0.09261755	0.40246249	-0.096194729	0.083430467	0.40920577	0.18095254	0.059107405	0.40227198	0.021256197	0.083174001	0.39015805	0.04550487	-0.0058334818	0.78892251	-0.17295593	-0.056207947	0.75114833	0.16640776	0.054941973	0.83066098	-0.11869056	0.036155779	0.81398242	0.1267288	-0.14380889	0.89518383	0.0079665283	-0.025150119	1.301765	-0.18456147	-0.032472298	1.297848	0.17783469	-0.10533815	1.335604	-0.007012722	-0.097445081	0.99053753	-0.23356959	-0.096861946	0.98391175	0.24829825	0.044613677	0.79237975	-0.27246975	0.081532736	0.81398386	0.26367503
204	0.812	0.10480922	0.0097635055	-0.04892505	-0.15752503	0.088474364	0.125221	-0.016682869	0.042253328	-0.075423867	-0.217304	0.21207123	0.14246009	-0.019900758	0.05715394	0.012706707	-0.17892776	0.20987002	0.059004037	-0.094871589	0.018025327	-0.032510101	-0.26233996	0.2408899	0.079361892	0.093259652	0.40244221	-0.095797659	0.095684578	0.41347425	0.18028295	0.0590806	0.40266726	0.021447779	0.094822385	0.39446732	0.044989779	-0.00025556296	0.79027364	-0.17305898	-0.048841135	0.75375535	0.16702318	0.06085243	0.83247014	-0.11886435	0.042771672	0.81627394	0.12619677	-0.13692507	0.89714366	0.0077742785	-0.018691962	1.3040179	-0.18442243	-0.026168679	1.2995216	0.17777862	-0.098935095	1.337412	-0.0069985281	-0.089231882	0.99214232	-0.23433313	-0.092882773	0.98617421	0.24757115	0.056377908	0.79589287	-0.27125041	0.082910746	0.81373504	0.26420207
